<svg width="546" height="527" viewBox="0 0 546 527" fill="none" xmlns="http://www.w3.org/2000/svg">
<rect width="546" height="527" fill="#1E1E1E"/>
<rect width="546" height="527" fill="white"/>
<path d="M471.317 302.703L545.616 316.124L534.499 373.457L460.201 360.036L471.317 302.703Z" fill="#F5F5F5"/>
<path d="M471.298 302.721L471.659 302.806L472.751 303.006L476.78 303.765L491.992 306.579L545.554 316.381L545.347 316.086C542.071 333.15 538.227 352.712 534.197 373.413L534.536 373.181L460.28 359.816L460.466 360.09C463.742 342.826 466.493 328.523 468.404 318.5C469.344 313.493 470.086 309.562 470.588 306.906C470.84 305.567 471.025 304.545 471.156 303.828C471.287 303.111 471.342 302.774 471.342 302.774C471.342 302.774 471.255 303.111 471.124 303.828L470.501 306.853C469.966 309.541 469.191 313.451 468.197 318.447C466.22 328.492 463.403 342.837 459.996 360.143L459.941 360.365L460.182 360.417L534.481 373.803L534.765 373.856L534.82 373.571C538.817 352.871 542.606 333.308 545.904 316.234V315.991L545.642 315.938L491.872 306.347L476.704 303.67L472.696 302.974L471.68 302.806L471.298 302.721Z" fill="#E0E0E0"/>
<path d="M473.278 306.789L542.36 319.268L532.644 369.38L463.562 356.901L473.278 306.789Z" fill="#EBEBEB"/>
<path d="M532.669 369.397L514.574 333.888L495.857 350.678L487.733 338.431L463.589 356.928L532.669 369.397Z" fill="#E0E0E0"/>
<path d="M494.023 326.236C493.821 327.275 493.944 328.348 494.374 329.319C494.804 330.291 495.523 331.118 496.44 331.695C497.357 332.272 498.431 332.574 499.526 332.563C500.621 332.551 501.687 332.226 502.591 331.63C503.494 331.033 504.194 330.191 504.602 329.21C505.01 328.23 505.108 327.154 504.883 326.12C504.658 325.086 504.12 324.14 503.338 323.4C502.555 322.661 501.563 322.162 500.487 321.967C499.773 321.838 499.038 321.845 498.326 321.99C497.614 322.134 496.939 322.412 496.339 322.809C495.738 323.205 495.225 323.712 494.827 324.3C494.43 324.888 494.157 325.546 494.023 326.236Z" fill="#E0E0E0"/>
<path d="M359.998 62.5012L398.037 265.336L242.444 292.52L204.405 89.685L359.998 62.5012Z" fill="#FAFAFA"/>
<path d="M242.448 292.529C242.448 292.529 242.393 292.192 242.284 291.559L241.76 288.703C241.301 286.195 240.613 282.484 239.729 277.668C237.927 268.013 235.306 253.911 231.986 236.056L204.686 89.6551L204.468 89.9503L360.023 62.7887L359.685 62.5568C373.881 138.223 387.061 208.314 397.785 265.378L397.97 265.115L284.916 284.993L253.543 290.537L245.287 292.013C243.42 292.339 242.448 292.529 242.448 292.529L245.243 292.065L253.466 290.653L284.839 285.267L398.08 265.599H398.309V265.378C387.618 208.293 374.482 138.202 360.307 62.5357V62.2617H360.013L204.359 89.4443L204.097 89.497V89.7395C215.421 149.817 224.987 200.546 231.713 236.245L239.576 277.773C240.493 282.569 241.192 286.205 241.672 288.756C241.913 289.989 242.087 290.927 242.208 291.57L242.448 292.529Z" fill="#E0E0E0"/>
<path d="M280.793 95.4783L346.855 83.9364L357.273 139.486L291.21 151.028L280.793 95.4783Z" fill="#E0E0E0"/>
<path d="M228.102 104.684L270.396 97.2948L271.755 104.544L229.462 111.934L228.102 104.684Z" fill="#E0E0E0"/>
<path d="M237.854 172.042L358.568 150.952L359.927 158.201L239.214 179.291L237.854 172.042Z" fill="#E0E0E0"/>
<path d="M240.237 184.802L360.95 163.712L362.31 170.961L241.596 192.051L240.237 184.802Z" fill="#E0E0E0"/>
<path d="M242.628 197.562L363.342 176.472L364.702 183.721L243.988 204.811L242.628 197.562Z" fill="#E0E0E0"/>
<path d="M245.033 210.32L365.746 189.23L367.106 196.48L246.392 217.57L245.033 210.32Z" fill="#E0E0E0"/>
<path d="M247.424 223.07L368.138 201.98L369.498 209.229L248.784 230.319L247.424 223.07Z" fill="#E0E0E0"/>
<path d="M255.627 266.82L376.341 245.73L377.7 252.979L256.987 274.069L255.627 266.82Z" fill="#E0E0E0"/>
<path d="M304.256 226.323L370.522 214.745L371.882 221.995L305.615 233.572L304.256 226.323Z" fill="#E0E0E0"/>
<path d="M230.297 116.419L272.591 109.03L273.951 116.28L231.657 123.669L230.297 116.419Z" fill="#E0E0E0"/>
<path d="M234.1 128.302L276.222 120.835L277.596 128.055L235.474 135.522L234.1 128.302Z" fill="#E0E0E0"/>
<path d="M250.915 137.037L276.994 132.481L278.353 139.73L252.274 144.287L250.915 137.037Z" fill="#E0E0E0"/>
<path d="M172.09 61.566L185.511 62.093L186.963 65.7188C187.378 66.6633 187.6 67.676 187.618 68.7016C187.632 69.1551 187.515 69.6033 187.279 69.9961C187.044 70.3888 186.7 70.7106 186.286 70.9256C185.073 71.2989 183.802 71.4666 182.53 71.4209V72.4749L195.022 72.9176V71.8636C193.753 71.6514 192.597 71.0266 191.746 70.0929C190.454 68.3646 189.434 66.4607 188.721 64.4435L176.458 34.6996H175.923L160.974 64.2116C159.518 67.0222 158.367 68.7789 157.523 69.4816C156.741 70.0623 155.779 70.3707 154.793 70.3564V71.3472L173.171 72.0639V71.0626H172.407C171.331 71.111 170.263 70.8624 169.327 70.3459C169.129 70.1994 168.972 70.0063 168.873 69.7849C168.773 69.5635 168.734 69.3211 168.76 69.0811C168.777 68.7426 168.847 68.4087 168.967 68.0903C168.967 67.9322 169.327 67.2576 169.895 66.0982L172.09 61.566ZM173.128 59.6056L179.308 47.1895L184.615 60.0483L173.128 59.6056Z" fill="#E0E0E0"/>
<path d="M146.677 138.151L208.055 157.939L191.664 205.305L130.286 185.517L146.677 138.151Z" fill="#F5F5F5"/>
<path d="M147.86 141.841L204.919 160.236L190.593 201.634L133.534 183.238L147.86 141.841Z" fill="#EBEBEB"/>
<path d="M190.589 201.653L179.56 169.496L161.651 181.617L156.256 170.307L133.532 183.261L190.589 201.653Z" fill="#E0E0E0"/>
<path d="M163.07 160.674C162.773 161.532 162.746 162.456 162.993 163.329C163.239 164.202 163.749 164.984 164.456 165.578C165.164 166.171 166.038 166.549 166.968 166.663C167.898 166.777 168.842 166.622 169.681 166.218C170.52 165.814 171.216 165.178 171.681 164.393C172.145 163.607 172.358 162.706 172.292 161.803C172.226 160.9 171.885 160.037 171.31 159.322C170.736 158.607 169.955 158.072 169.065 157.786C168.475 157.594 167.852 157.517 167.231 157.558C166.61 157.6 166.003 157.76 165.446 158.028C164.889 158.296 164.393 158.668 163.985 159.122C163.577 159.576 163.266 160.103 163.07 160.674Z" fill="#E0E0E0"/>
<path d="M144.973 83.0661L159.997 157.115L64.0422 175.252L49.0183 101.203L144.973 83.0661Z" fill="#F5F5F5"/>
<path d="M49 101.207L49.4696 101.133L50.8237 100.901L56.0434 99.9422L75.6994 96.2953L145.009 83.3206L144.703 83.1203C149.169 105.159 154.28 130.424 159.696 157.164L159.925 156.827L63.9823 175.029L64.2662 175.208C59.6907 152.927 55.9015 134.45 53.2479 121.539C51.9047 115.078 50.8564 110.008 50.1357 106.54C49.7753 104.812 49.5023 103.494 49.3058 102.577C49.1092 101.66 49 101.207 49 101.207C49 101.207 49.0765 101.66 49.2512 102.546C49.4259 103.431 49.677 104.759 50.0156 106.466C50.7035 109.924 51.7082 114.983 52.9858 121.433C55.5848 134.397 59.3085 152.937 63.7857 175.303L63.8403 175.535H64.0696L160.078 157.396L160.362 157.343L160.308 157.069C154.848 130.34 149.726 105.075 145.249 83.036L145.194 82.7831L144.943 82.8358L75.481 96.074L55.9124 99.8473L50.7472 100.901L49.4368 101.165L49 101.207Z" fill="#E0E0E0"/>
<path d="M142.6 88.3553L155.731 153.075L66.5168 169.938L53.3858 105.218L142.6 88.3553Z" fill="#EBEBEB"/>
<path d="M155.732 153.085L116.409 118.746L102.213 147.562L86.3901 136.579L66.5157 169.949L155.732 153.085Z" fill="#E0E0E0"/>
<path d="M87.908 119.009C88.1784 120.352 88.8555 121.587 89.8533 122.558C90.8512 123.529 92.1252 124.193 93.514 124.465C94.9028 124.738 96.3441 124.606 97.6554 124.088C98.9668 123.569 100.089 122.687 100.881 121.552C101.673 120.418 102.098 119.082 102.103 117.714C102.108 116.346 101.693 115.008 100.91 113.868C100.126 112.728 99.0105 111.838 97.703 111.31C96.3955 110.783 94.9553 110.641 93.5645 110.904C92.6413 111.077 91.7624 111.424 90.9783 111.925C90.1942 112.426 89.5201 113.071 88.9947 113.824C88.4693 114.577 88.1029 115.422 87.9164 116.312C87.7299 117.202 87.7271 118.118 87.908 119.009Z" fill="#E0E0E0"/>
<path d="M514.17 42.0143L509.212 97.8553L486.772 103.726L443.245 98.846L449.371 35.9855L514.17 42.0143Z" fill="#F5F5F5"/>
<path d="M502.366 92.8382L509.202 97.8553C506.603 100.03 503.565 101.659 500.28 102.64C495.888 103.82 491.303 104.178 486.772 103.694C486.772 103.694 497.135 101.997 502.366 92.8382Z" fill="#EBEBEB"/>
<path d="M454.612 56.549C454.612 56.6544 465.62 57.7611 479.215 59.0364C492.811 60.3118 503.862 61.2604 503.873 61.1444C503.884 61.0285 492.865 59.9007 479.259 58.657C465.653 57.4133 454.623 56.412 454.612 56.549Z" fill="#E0E0E0"/>
<path d="M453.968 65.1075C453.968 65.2129 464.976 66.3301 478.571 67.6055C492.166 68.8808 503.217 69.8189 503.228 69.7135C503.239 69.6081 492.221 68.4908 478.615 67.2155C465.008 65.9401 453.979 64.981 453.968 65.1075Z" fill="#E0E0E0"/>
<path d="M452.931 72.6857C452.931 72.7911 463.938 73.9084 477.534 75.1732C491.129 76.438 502.169 77.3971 502.18 77.2812C502.191 77.1652 491.184 76.0691 477.577 74.7937C463.971 73.5184 452.942 72.5803 452.931 72.6857Z" fill="#E0E0E0"/>
<path d="M452.243 80.0111C452.243 80.1059 463.25 81.2232 476.857 82.4985C490.463 83.7738 501.492 84.7224 501.503 84.6065C501.514 84.4906 490.496 83.3839 476.889 82.1191C463.283 80.8543 452.254 79.9057 452.243 80.0111Z" fill="#E0E0E0"/>
<path d="M528.954 484.735C528.954 484.882 414.783 485.009 273.988 485.009C133.192 485.009 19 484.882 19 484.735C19 484.587 133.138 484.45 273.988 484.45C414.838 484.45 528.954 484.577 528.954 484.735Z" fill="#263238"/>
<path d="M498.018 132.119L451.979 386.576L257.843 357.158L248.845 336.173L301.37 100.889L483.341 111.366L498.018 132.119Z" fill="#E0E0E0"/>
<path opacity="0.3" d="M451.979 386.576L438.187 366.181L484.226 111.713L498.018 132.119L451.979 386.576Z" fill="black"/>
<path d="M484.226 111.713L438.187 366.181L248.845 336.173L296.686 85.901L484.226 111.713Z" fill="#FAFAFA"/>
<path d="M484.226 111.724L296.718 85.6902H296.489V85.901C283.068 155.792 266.448 242.42 248.561 336.121L248.507 336.405L248.801 336.458L251.924 336.953L438.143 366.465H438.405V366.212C465.487 215.922 483.822 113.958 484.226 111.724C483.822 113.969 465.268 215.891 437.925 366.139L438.231 365.938L252.023 336.426L248.9 335.931L249.14 336.258C267.027 242.546 283.56 155.918 296.915 85.9748L296.653 86.154L484.226 111.724Z" fill="#263238"/>
<path d="M332.416 232.223C330.069 215.171 342.487 199.512 360.153 197.246C377.819 194.979 394.043 206.965 396.391 224.017C398.739 241.068 386.321 256.728 368.655 258.994C350.989 261.26 334.764 249.274 332.416 232.223Z" fill="#F49466"/>
<path d="M379.208 236.286L380.671 227.316L348.49 222.394L347.114 230.826C347.114 230.826 349.08 238.078 362.096 240.059C375.113 242.041 379.208 236.286 379.208 236.286Z" fill="white"/>
<path d="M385.749 227.369L362.784 231.311L342.866 220.497L365.864 216.987L385.749 227.369Z" fill="white"/>
<path d="M321.496 140.364L435.603 157.769C437.003 157.982 437.958 159.251 437.737 160.602L437.352 162.955C437.131 164.306 435.817 165.228 434.417 165.015L320.31 147.61C318.91 147.397 317.955 146.128 318.176 144.777L318.561 142.424C318.782 141.073 320.096 140.151 321.496 140.364Z" fill="#E0E0E0"/>
<path d="M339.549 158.684L411.913 169.722C413.313 169.935 414.268 171.204 414.047 172.555L413.662 174.908C413.441 176.259 412.127 177.181 410.727 176.968L338.362 165.93C336.962 165.717 336.007 164.448 336.228 163.097L336.613 160.744C336.835 159.393 338.149 158.471 339.549 158.684Z" fill="#E0E0E0"/>
<path d="M313.484 314.813L385.848 325.851C387.248 326.065 388.203 327.333 387.982 328.684L387.597 331.037C387.376 332.388 386.061 333.31 384.662 333.097L312.297 322.059C310.897 321.846 309.942 320.577 310.163 319.226L310.548 316.873C310.769 315.522 312.084 314.6 313.484 314.813Z" fill="#E0E0E0"/>
<path d="M258.597 343.246L259.514 343.414L262.222 343.868L272.694 345.554L311.58 351.709L442.948 372.315L443.232 372.368V372.094C445.066 362.028 446.999 351.488 448.965 340.748C459.535 283.041 469.058 230.826 475.948 192.998C479.366 174.089 482.129 158.796 484.051 148.213C484.99 142.943 485.722 138.822 486.235 136.029C486.475 134.638 486.661 133.584 486.792 132.867C486.923 132.151 486.956 131.813 486.956 131.813C486.956 131.813 486.868 132.182 486.726 132.867C486.584 133.552 486.388 134.649 486.126 136.029C485.602 138.822 484.837 142.922 483.843 148.192C481.889 158.732 479.06 174.058 475.566 192.945C468.632 230.763 459.044 282.978 448.463 340.674C446.497 351.404 444.575 361.954 442.73 372.02L443.068 371.788L311.657 351.361L272.749 345.375L262.266 343.783L259.547 343.383L258.597 343.246Z" fill="#263238"/>
<path d="M273 352.816L273.863 352.985L276.418 353.417L286.312 355.04L323.09 360.963L447.906 380.905H448.19V380.642L455.364 343.045C466.055 286.129 475.73 234.641 482.74 197.351C486.213 178.716 489.03 163.623 490.974 153.188C491.924 147.982 492.678 143.934 493.158 141.173C493.398 139.813 493.595 138.77 493.715 138.011C493.835 137.252 493.89 136.957 493.89 136.957C493.89 136.957 493.802 137.305 493.66 138.011L493.038 141.173C492.514 143.924 491.728 147.961 490.723 153.157L482.315 197.288C475.26 234.578 465.52 286.066 454.763 342.951C452.339 355.841 449.959 368.457 447.676 380.589L448.004 380.368L323.177 360.616L286.377 354.85L276.473 353.322L273.906 352.942L273 352.816Z" fill="#263238"/>
<path d="M479.65 219.474L483.92 225.293L473.557 285.255L467.387 287.278L479.65 219.474Z" fill="#263238"/>
<path d="M450.08 214.481L479.641 219.466L467.369 287.265L437.808 282.28L450.08 214.481Z" fill="#263238"/>
<path d="M449.138 211.852L451.064 212.176C452.163 212.361 452.898 213.371 452.706 214.432L440.289 283.106C440.097 284.167 439.051 284.877 437.951 284.691L436.026 284.367C434.927 284.182 434.191 283.172 434.383 282.111L446.801 213.437C446.992 212.377 448.039 211.667 449.138 211.852Z" fill="#263238"/>
<path d="M484.761 268.528C488.036 268.515 491.196 267.358 493.657 265.272C496.118 263.185 497.713 260.31 498.149 257.176C498.524 254.499 498.031 251.775 496.737 249.38C495.443 246.984 493.411 245.035 490.922 243.799C488.433 242.564 485.608 242.103 482.837 242.481C480.065 242.859 477.483 244.056 475.446 245.909L456.991 235.79C456.638 235.597 456.242 235.488 455.836 235.474C455.43 235.459 455.027 235.539 454.659 235.706C454.292 235.874 453.972 236.124 453.726 236.436C453.48 236.747 453.315 237.112 453.246 237.498L448.878 261.624C448.806 262.008 448.83 262.403 448.95 262.775C449.069 263.148 449.279 263.488 449.563 263.766C449.846 264.044 450.195 264.252 450.58 264.372C450.964 264.493 451.373 264.523 451.771 264.459L472.607 261.297C473.735 263.476 475.469 265.309 477.616 266.59C479.763 267.871 482.237 268.549 484.761 268.549V268.528ZM484.761 244.486C485.309 244.483 485.857 244.521 486.399 244.602C489.336 245.063 491.977 246.6 493.769 248.893C495.561 251.187 496.367 254.059 496.019 256.912C495.688 259.298 494.553 261.513 492.789 263.214C491.024 264.915 488.729 266.008 486.256 266.325C483.784 266.642 481.272 266.164 479.109 264.966C476.946 263.767 475.252 261.915 474.288 259.695L473.961 258.936L451.422 262.446C451.368 262.457 451.313 262.454 451.261 262.437C451.209 262.421 451.163 262.391 451.127 262.351C451.088 262.315 451.059 262.27 451.042 262.22C451.025 262.171 451.02 262.118 451.029 262.067L455.397 237.93C455.407 237.877 455.431 237.828 455.465 237.786C455.499 237.744 455.543 237.71 455.593 237.688C455.642 237.663 455.697 237.651 455.752 237.651C455.807 237.651 455.861 237.663 455.91 237.688L475.839 248.565L476.429 247.964C477.496 246.875 478.783 246.009 480.21 245.418C481.638 244.827 483.175 244.524 484.728 244.528L484.761 244.486Z" fill="#455A64"/>
<path d="M440.425 282.209C440.498 281.989 440.549 281.763 440.578 281.534C440.677 281.028 440.797 280.385 440.961 279.595C441.288 277.834 441.747 275.379 442.315 272.427C443.407 266.325 444.979 257.998 446.683 248.797C448.386 239.595 449.839 231.248 450.931 225.124C451.444 222.152 451.859 219.717 452.154 217.946C452.285 217.145 452.383 216.492 452.459 215.986C452.51 215.761 452.532 215.531 452.525 215.301C452.451 215.518 452.392 215.74 452.35 215.965C452.241 216.471 452.099 217.113 451.935 217.904C451.586 219.664 451.105 222.12 450.526 225.061C449.358 231.1 447.796 239.458 446.158 248.691C444.52 257.924 442.992 266.304 441.965 272.364C441.441 275.4 441.048 277.855 440.786 279.552C440.666 280.406 440.557 281.06 440.513 281.523C440.455 281.747 440.425 281.978 440.425 282.209Z" fill="#455A64"/>
<path d="M467.977 287.51C468.041 287.285 468.092 287.056 468.13 286.825C468.228 286.33 468.348 285.687 468.501 284.886C468.839 283.125 469.298 280.67 469.866 277.729C470.958 271.616 472.53 263.289 474.234 254.088C475.937 244.886 477.379 236.539 478.482 230.425C478.995 227.443 479.41 225.008 479.705 223.248C479.836 222.436 479.934 221.793 480.01 221.287C480.062 221.059 480.084 220.825 480.076 220.592C479.993 220.811 479.931 221.036 479.89 221.266C479.792 221.772 479.65 222.415 479.486 223.206C479.137 224.966 478.656 227.422 478.078 230.352C476.909 236.402 475.348 244.749 473.71 253.993C472.072 263.236 470.543 271.595 469.505 277.655C468.992 280.691 468.588 283.147 468.337 284.854C468.217 285.708 468.108 286.361 468.064 286.814C468.006 287.042 467.976 287.276 467.977 287.51Z" fill="#455A64"/>
<path d="M342.888 220.497C343.364 220.848 343.868 221.162 344.395 221.435L348.61 223.827C352.192 225.83 357.16 228.56 362.664 231.553L362.762 231.606H362.861H363.09C369.369 230.552 375.102 229.498 379.142 228.771L384.002 227.854C384.603 227.764 385.195 227.623 385.771 227.432C385.163 227.459 384.557 227.525 383.958 227.632L379.077 228.381C374.949 229.034 369.249 229.983 362.981 231.058H362.762H362.959C357.444 228.075 352.443 225.398 348.763 223.48L344.45 221.245C343.954 220.95 343.431 220.699 342.888 220.497Z" fill="#263238"/>
<path d="M341.147 125.952L342.13 115.288L349.268 116.349L349.097 118.208L344.198 117.48L343.964 120.021L348.495 120.695L348.324 122.554L343.793 121.88L343.558 124.427L348.477 125.158L348.306 127.017L341.147 125.952ZM355.459 122.75L355.297 124.51L350.466 123.791L350.628 122.031L355.459 122.75ZM360.039 117.951L359.056 128.616L356.852 128.288L357.835 117.624L360.039 117.951ZM364.427 129.573C363.61 129.452 362.922 129.18 362.363 128.759C361.808 128.336 361.4 127.793 361.139 127.131C360.879 126.466 360.788 125.712 360.865 124.868C360.941 124.045 361.166 123.347 361.541 122.773C361.915 122.198 362.407 121.78 363.014 121.519C363.626 121.258 364.321 121.185 365.1 121.301C365.625 121.379 366.105 121.537 366.541 121.774C366.981 122.009 367.354 122.319 367.661 122.706C367.971 123.094 368.198 123.557 368.34 124.095C368.483 124.63 368.523 125.238 368.461 125.919L368.405 126.528L361.696 125.53L361.823 124.155L366.457 124.845C366.486 124.525 366.444 124.232 366.328 123.965C366.213 123.698 366.04 123.477 365.807 123.302C365.579 123.123 365.305 123.01 364.984 122.963C364.65 122.913 364.346 122.947 364.073 123.065C363.804 123.179 363.584 123.356 363.416 123.595C363.247 123.83 363.147 124.106 363.114 124.421L362.994 125.728C362.957 126.124 362.998 126.477 363.116 126.786C363.238 127.097 363.426 127.35 363.681 127.546C363.935 127.742 364.247 127.868 364.616 127.923C364.861 127.959 365.088 127.958 365.298 127.919C365.508 127.879 365.692 127.801 365.849 127.684C366.007 127.567 366.133 127.413 366.227 127.223L368.253 127.661C368.104 128.139 367.852 128.538 367.498 128.858C367.147 129.175 366.71 129.399 366.188 129.529C365.669 129.656 365.083 129.671 364.427 129.573ZM371.778 130.661C371.271 130.586 370.828 130.43 370.447 130.194C370.067 129.955 369.778 129.642 369.579 129.257C369.384 128.869 369.311 128.412 369.36 127.884C369.401 127.44 369.516 127.078 369.706 126.801C369.896 126.523 370.139 126.312 370.435 126.17C370.732 126.028 371.062 125.936 371.425 125.895C371.793 125.855 372.175 125.844 372.571 125.865C373.038 125.885 373.414 125.895 373.701 125.896C373.988 125.892 374.199 125.857 374.335 125.789C374.47 125.721 374.546 125.602 374.562 125.432L374.564 125.401C374.595 125.071 374.515 124.801 374.325 124.589C374.138 124.379 373.857 124.245 373.481 124.189C373.084 124.13 372.76 124.172 372.51 124.314C372.259 124.453 372.084 124.649 371.984 124.901L369.961 124.431C370.109 123.961 370.351 123.571 370.687 123.262C371.024 122.95 371.441 122.733 371.937 122.614C372.438 122.491 373.006 122.477 373.64 122.571C374.082 122.637 374.499 122.752 374.893 122.916C375.29 123.081 375.636 123.296 375.929 123.561C376.227 123.827 376.451 124.146 376.602 124.516C376.753 124.884 376.807 125.305 376.763 125.781L376.266 131.176L374.176 130.865L374.279 129.756L374.217 129.747C374.066 129.977 373.875 130.173 373.644 130.332C373.412 130.487 373.142 130.597 372.832 130.66C372.522 130.719 372.171 130.72 371.778 130.661ZM372.55 129.224C372.874 129.272 373.166 129.251 373.426 129.159C373.687 129.064 373.898 128.916 374.06 128.715C374.222 128.514 374.316 128.273 374.342 127.991L374.42 127.143C374.347 127.178 374.248 127.205 374.124 127.225C374.003 127.243 373.868 127.256 373.716 127.265C373.566 127.271 373.415 127.275 373.264 127.277C373.114 127.276 372.978 127.275 372.856 127.274C372.593 127.274 372.362 127.301 372.161 127.356C371.96 127.41 371.8 127.501 371.68 127.627C371.56 127.75 371.491 127.916 371.472 128.124C371.444 128.426 371.531 128.673 371.734 128.865C371.94 129.054 372.212 129.174 372.55 129.224ZM377.976 131.43L378.713 123.431L380.849 123.749L380.72 125.145L380.803 125.157C380.994 124.682 381.271 124.343 381.636 124.141C382.001 123.935 382.406 123.865 382.851 123.931C382.961 123.947 383.079 123.972 383.206 124.005C383.332 124.038 383.442 124.073 383.537 124.112L383.355 126.08C383.255 126.034 383.114 125.985 382.934 125.933C382.753 125.882 382.587 125.845 382.435 125.822C382.111 125.774 381.815 125.802 381.547 125.906C381.282 126.008 381.064 126.173 380.893 126.4C380.725 126.629 380.626 126.906 380.596 127.233L380.179 131.758L377.976 131.43ZM386.565 128.02L386.139 132.644L383.936 132.316L384.673 124.318L386.773 124.63L386.643 126.041L386.736 126.055C386.954 125.616 387.283 125.292 387.722 125.083C388.161 124.87 388.675 124.808 389.265 124.895C389.817 124.977 390.287 125.171 390.675 125.475C391.063 125.779 391.35 126.173 391.536 126.658C391.722 127.14 391.786 127.692 391.729 128.313L391.26 133.406L389.056 133.078L389.489 128.381C389.538 127.892 389.449 127.492 389.222 127.18C388.996 126.865 388.662 126.674 388.221 126.609C387.924 126.565 387.656 126.59 387.417 126.685C387.181 126.78 386.988 126.941 386.838 127.168C386.691 127.393 386.6 127.677 386.565 128.02ZM396.603 134.359C395.786 134.237 395.098 133.966 394.539 133.545C393.983 133.121 393.576 132.578 393.315 131.917C393.055 131.252 392.963 130.497 393.041 129.654C393.117 128.831 393.342 128.132 393.716 127.558C394.091 126.984 394.582 126.566 395.19 126.304C395.801 126.044 396.497 125.971 397.276 126.087C397.8 126.165 398.28 126.322 398.716 126.56C399.156 126.794 399.529 127.105 399.836 127.492C400.147 127.879 400.373 128.342 400.516 128.881C400.659 129.416 400.699 130.024 400.636 130.704L400.58 131.313L393.871 130.316L393.998 128.941L398.633 129.63C398.662 129.311 398.619 129.018 398.504 128.751C398.389 128.484 398.215 128.262 397.983 128.087C397.755 127.909 397.48 127.796 397.16 127.748C396.825 127.698 396.521 127.732 396.248 127.85C395.979 127.965 395.76 128.142 395.591 128.381C395.423 128.616 395.322 128.891 395.29 129.207L395.169 130.514C395.133 130.91 395.174 131.262 395.292 131.572C395.414 131.882 395.602 132.135 395.856 132.332C396.111 132.528 396.423 132.653 396.792 132.708C397.037 132.745 397.264 132.743 397.474 132.704C397.684 132.665 397.867 132.587 398.025 132.469C398.183 132.352 398.309 132.198 398.403 132.008L400.428 132.447C400.28 132.924 400.028 133.323 399.673 133.644C399.322 133.961 398.886 134.185 398.364 134.314C397.845 134.441 397.258 134.456 396.603 134.359ZM401.702 134.959L402.439 126.96L404.575 127.278L404.446 128.674L404.529 128.686C404.72 128.211 404.997 127.872 405.362 127.67C405.727 127.464 406.132 127.394 406.577 127.46C406.687 127.476 406.806 127.501 406.932 127.534C407.058 127.566 407.169 127.602 407.263 127.641L407.082 129.609C406.981 129.563 406.84 129.514 406.66 129.462C406.479 129.411 406.313 129.374 406.162 129.351C405.837 129.303 405.541 129.331 405.273 129.435C405.008 129.537 404.79 129.701 404.619 129.929C404.451 130.158 404.352 130.435 404.322 130.761L403.905 135.287L401.702 134.959ZM414.799 131.111L412.77 130.936C412.752 130.757 412.692 130.59 412.591 130.434C412.49 130.275 412.351 130.14 412.172 130.029C411.998 129.915 411.783 129.839 411.527 129.801C411.186 129.75 410.891 129.78 410.643 129.891C410.396 129.998 410.261 130.172 410.239 130.411C410.221 130.602 410.282 130.775 410.422 130.93C410.561 131.084 410.812 131.229 411.174 131.363L412.585 131.869C413.342 132.143 413.895 132.486 414.241 132.896C414.588 133.307 414.735 133.8 414.682 134.377C414.633 134.901 414.438 135.338 414.094 135.688C413.754 136.039 413.309 136.286 412.757 136.429C412.209 136.569 411.591 136.588 410.901 136.485C409.849 136.329 409.032 135.984 408.448 135.45C407.868 134.913 407.56 134.255 407.524 133.476L409.702 133.683C409.737 134.016 409.873 134.286 410.109 134.494C410.346 134.698 410.66 134.829 411.053 134.887C411.44 134.945 411.757 134.916 412.005 134.802C412.257 134.685 412.396 134.507 412.421 134.267C412.437 134.066 412.367 133.888 412.214 133.735C412.06 133.579 411.814 133.44 411.476 133.319L410.125 132.839C409.364 132.567 408.811 132.21 408.467 131.769C408.127 131.327 407.984 130.808 408.039 130.211C408.087 129.697 408.265 129.275 408.576 128.945C408.889 128.615 409.307 128.387 409.829 128.26C410.354 128.134 410.957 128.122 411.636 128.223C412.64 128.372 413.41 128.703 413.946 129.216C414.486 129.729 414.77 130.36 414.799 131.111Z" fill="#263238"/>
<path d="M95.8907 341.585H188.245V388.741H95.8907C90.8201 388.741 85.9572 386.781 82.3718 383.292C78.7863 379.803 76.772 375.071 76.772 370.137V360.177C76.772 355.243 78.7863 350.512 82.3718 347.023C85.9572 343.534 90.8201 341.574 95.8907 341.574V341.585Z" fill="#F49466"/>
<path d="M164.1 341.585H358.916C359.758 341.585 360.565 341.91 361.16 342.489C361.755 343.068 362.09 343.854 362.09 344.673V346.328C362.09 347.147 361.755 347.932 361.16 348.511C360.565 349.09 359.758 349.416 358.916 349.416H164.1V341.585Z" fill="#F49466"/>
<path d="M164.1 380.92H358.916C359.333 380.92 359.745 381 360.13 381.155C360.516 381.31 360.865 381.538 361.16 381.824C361.455 382.111 361.689 382.452 361.848 382.826C362.008 383.201 362.09 383.603 362.09 384.008V385.663C362.09 386.482 361.755 387.267 361.16 387.847C360.565 388.426 359.758 388.751 358.916 388.751H164.1V380.92Z" fill="#F49466"/>
<path d="M356.165 380.92H186.198C184.072 380.92 181.967 380.512 180.002 379.72C178.038 378.928 176.254 377.767 174.751 376.304C173.248 374.841 172.056 373.104 171.244 371.192C170.431 369.28 170.013 367.231 170.015 365.163C170.015 360.986 171.72 356.981 174.755 354.028C177.79 351.075 181.906 349.416 186.198 349.416H356.165C353.913 354.378 352.75 359.743 352.75 365.168C352.75 370.593 353.913 375.957 356.165 380.92Z" fill="#F5F5F5"/>
<path opacity="0.3" d="M170.015 388.751H96.2698C91.0987 388.751 86.1394 386.752 82.4828 383.194C78.8263 379.636 76.772 374.811 76.772 369.779V360.409C76.772 355.416 78.8103 350.628 82.4384 347.098C86.0665 343.568 90.9873 341.585 96.1182 341.585H171.845C154.308 351.935 155.619 376.704 170.015 388.751Z" fill="black"/>
<path d="M335.519 366.628C335.519 366.786 300.628 366.912 257.603 366.912C214.578 366.912 179.688 366.786 179.688 366.628C179.688 366.47 214.567 366.343 257.603 366.343C300.639 366.343 335.519 366.47 335.519 366.628Z" fill="#263238"/>
<path d="M351.55 373.626C351.55 373.784 316.66 373.911 273.635 373.911C230.61 373.911 195.719 373.784 195.719 373.626C195.719 373.468 230.599 373.352 273.635 373.352C316.671 373.352 351.55 373.479 351.55 373.626Z" fill="#263238"/>
<path d="M346.827 356.699C346.827 356.857 311.937 356.984 268.912 356.984C225.887 356.984 190.986 356.857 190.986 356.699C190.986 356.541 225.865 356.414 268.912 356.414C311.959 356.414 346.827 356.562 346.827 356.699Z" fill="#263238"/>
<path d="M161.479 385.442C161.479 385.6 145.144 385.726 125.007 385.726C104.871 385.726 88.5357 385.6 88.5357 385.442C88.5357 385.283 104.86 385.157 125.007 385.157C145.155 385.157 161.479 385.283 161.479 385.442Z" fill="#263238"/>
<path d="M161.479 345.506C161.479 345.664 145.144 345.79 125.007 345.79C104.871 345.79 88.5357 345.664 88.5357 345.506C88.5357 345.347 104.86 345.221 125.007 345.221C145.155 345.221 161.479 345.347 161.479 345.506Z" fill="#263238"/>
<path d="M55.1187 421.847H179.569V482.578H55.1187C50.0481 482.578 45.1852 480.618 41.5997 477.129C38.0143 473.641 36 468.909 36 463.975V440.45C36 435.516 38.0143 430.784 41.5997 427.295C45.1852 423.807 50.0481 421.847 55.1187 421.847Z" fill="#F49466"/>
<path d="M148.47 421.847H400.24C401.082 421.847 401.889 422.172 402.485 422.751C403.08 423.33 403.414 424.116 403.414 424.935V428.845C403.414 429.664 403.08 430.45 402.485 431.029C401.889 431.608 401.082 431.933 400.24 431.933H148.47V421.847Z" fill="#F49466"/>
<path d="M148.47 472.502H400.24C401.082 472.502 401.889 472.827 402.485 473.406C403.08 473.986 403.414 474.771 403.414 475.59V479.501C403.414 480.32 403.08 481.105 402.485 481.684C401.889 482.263 401.082 482.589 400.24 482.589H148.47V472.502Z" fill="#F49466"/>
<path d="M395.81 472.502H176.937C171.408 472.499 166.107 470.36 162.199 466.556C158.291 462.751 156.096 457.592 156.096 452.212C156.096 449.549 156.635 446.912 157.682 444.452C158.729 441.992 160.264 439.756 162.2 437.873C164.135 435.99 166.432 434.496 168.961 433.477C171.49 432.458 174.2 431.934 176.937 431.934H395.81C392.907 438.323 391.407 445.232 391.407 452.218C391.407 459.204 392.907 466.113 395.81 472.502Z" fill="#F5F5F5"/>
<path opacity="0.3" d="M156.074 482.578H54.8695C52.3921 482.578 49.9389 482.103 47.6501 481.18C45.3614 480.258 43.2819 478.905 41.5306 477.2C39.7793 475.495 38.3904 473.471 37.4433 471.243C36.4962 469.016 36.0094 466.628 36.0108 464.218V440.882C36.0108 435.85 38.0651 431.025 41.7216 427.467C45.3782 423.909 50.3375 421.91 55.5086 421.91H158.414C135.85 435.169 137.54 467.074 156.074 482.578Z" fill="black"/>
<path d="M369.217 454.099C369.217 454.257 324.286 454.384 268.879 454.384C213.473 454.384 168.531 454.257 168.531 454.099C168.531 453.941 213.452 453.815 268.879 453.815C324.307 453.815 369.217 453.941 369.217 454.099Z" fill="#263238"/>
<path d="M389.874 463.111C389.874 463.269 344.942 463.395 289.525 463.395C234.108 463.395 189.177 463.269 189.177 463.111C189.177 462.953 234.098 462.837 289.525 462.837C344.953 462.837 389.874 463.016 389.874 463.111Z" fill="#263238"/>
<path d="M383.83 445.73C383.83 445.888 338.909 446.015 283.492 446.015C228.075 446.015 183.143 445.888 183.143 445.73C183.143 445.572 228.064 445.446 283.492 445.446C338.92 445.446 383.83 445.572 383.83 445.73Z" fill="#263238"/>
<path d="M145.079 478.32C145.079 478.478 124.054 478.605 98.1113 478.605C72.1684 478.605 51.1433 478.478 51.1433 478.32C51.1433 478.162 72.1684 478.046 98.1113 478.046C124.054 478.046 145.079 478.172 145.079 478.32Z" fill="#263238"/>
<path d="M145.079 426.895C145.079 427.043 124.054 427.169 98.1113 427.169C72.1684 427.169 51.1433 427.043 51.1433 426.895C51.1433 426.748 72.1684 426.611 98.1113 426.611C124.054 426.611 145.079 426.737 145.079 426.895Z" fill="#263238"/>
<path d="M114.305 387.297H216.842V422.079H114.305C110.571 422.079 106.989 420.635 104.348 418.065C101.707 415.496 100.224 412.011 100.224 408.377V400.999C100.224 397.365 101.707 393.879 104.348 391.31C106.989 388.74 110.571 387.297 114.305 387.297Z" fill="#455A64"/>
<path d="M191.582 387.297H395.398C396.28 387.297 397.126 387.637 397.75 388.244C398.374 388.851 398.724 389.674 398.724 390.532V392.261C398.724 393.119 398.374 393.942 397.75 394.549C397.126 395.156 396.28 395.497 395.398 395.497H191.582V387.307V387.297Z" fill="#455A64"/>
<path d="M191.582 413.878H395.398C396.28 413.878 397.126 414.219 397.75 414.826C398.374 415.433 398.724 416.256 398.724 417.114V418.843C398.724 419.701 398.374 420.524 397.75 421.131C397.126 421.738 396.28 422.079 395.398 422.079H191.582V413.889V413.878Z" fill="#455A64"/>
<path d="M392.495 413.878H207.266C204.76 413.878 202.357 412.91 200.584 411.187C198.81 409.464 197.813 407.126 197.81 404.688C197.81 402.247 198.806 399.907 200.58 398.181C202.353 396.456 204.758 395.486 207.266 395.486H392.495C387.758 401.62 387.758 407.751 392.495 413.878Z" fill="#F5F5F5"/>
<path opacity="0.3" d="M197.756 422.068H114.349C112.486 422.068 110.641 421.711 108.92 421.017C107.199 420.323 105.635 419.306 104.319 418.023C103.002 416.741 101.958 415.219 101.246 413.544C100.534 411.869 100.168 410.073 100.169 408.261V401.389C100.168 399.538 100.541 397.706 101.268 395.997C101.995 394.287 103.06 392.733 104.404 391.425C105.748 390.116 107.344 389.078 109.101 388.369C110.857 387.661 112.74 387.297 114.641 387.297H199.684C181.324 394.928 182.699 413.193 197.756 422.068Z" fill="black"/>
<path d="M370.929 403.233C370.929 403.391 334.424 403.518 289.406 403.518C244.388 403.518 207.884 403.391 207.884 403.233C207.884 403.075 244.377 402.959 289.406 402.959C334.435 402.959 370.929 403.086 370.929 403.233Z" fill="#263238"/>
<path d="M387.708 408.208C387.708 408.366 351.203 408.493 306.185 408.493C261.167 408.493 224.663 408.366 224.663 408.208C224.663 408.05 261.156 407.923 306.185 407.923C351.214 407.923 387.708 408.029 387.708 408.208Z" fill="#263238"/>
<path d="M188.852 418.611C188.852 418.769 171.77 418.896 150.69 418.896C129.611 418.896 112.529 418.769 112.529 418.611C112.529 418.453 129.611 418.326 150.69 418.326C171.77 418.326 188.852 418.453 188.852 418.611Z" fill="#263238"/>
<path d="M188.852 391.397C188.852 391.555 171.77 391.671 150.69 391.671C129.611 391.671 112.529 391.555 112.529 391.397C112.529 391.239 129.611 391.112 150.69 391.112C171.77 391.112 188.852 391.239 188.852 391.397Z" fill="#263238"/>
<path d="M396.287 387.297C396.287 387.455 333.601 387.581 256.303 387.581C179.005 387.581 116.277 387.455 116.277 387.297C116.277 387.139 178.94 387.012 256.271 387.012C333.601 387.012 396.287 387.128 396.287 387.297Z" fill="#263238"/>
<path d="M283.882 356.183V375.07L290.609 370.875L298.104 375.07V356.183H283.882Z" fill="#F49466"/>
<path d="M151 170.276L185.147 197.733L237.082 296.767L204.705 310.891L154.189 213.765L151 170.276Z" fill="#F49466"/>
<g opacity="0.7">
<path d="M154.189 213.733C154.584 213.827 154.997 213.832 155.395 213.747C155.793 213.662 156.165 213.489 156.482 213.242C156.8 212.995 157.053 212.681 157.224 212.323C157.394 211.966 157.477 211.575 157.465 211.182C158.542 212.392 159.985 213.246 161.591 213.624C163.197 214.001 164.886 213.883 166.419 213.287C167.952 212.69 169.253 211.644 170.138 210.297C171.023 208.95 171.449 207.368 171.355 205.775C172.794 206.523 174.413 206.888 176.046 206.833C177.68 206.778 179.268 206.304 180.65 205.461C182.031 204.618 183.155 203.436 183.907 202.035C184.659 200.634 185.011 199.066 184.928 197.491L151.076 170.245L154.189 213.733Z" fill="white"/>
</g>
<path d="M164.737 181.322C164.737 181.322 164.213 189.522 152.31 188.089L151 170.276L164.737 181.322Z" fill="#F49466"/>
<path opacity="0.3" d="M171.311 205.807L221.379 303.08L237.082 296.756L185.147 197.68L184.885 197.47C184.963 198.79 184.723 200.111 184.186 201.327C183.469 202.925 182.304 204.297 180.823 205.29C179.004 206.49 176.796 207.01 174.609 206.755C173.459 206.636 172.341 206.314 171.311 205.807Z" fill="black"/>
<path opacity="0.3" d="M157.377 211.214L208.81 309.078L204.661 310.891L154.189 213.733C154.873 213.853 155.58 213.723 156.171 213.369C156.763 213.014 157.196 212.46 157.388 211.815C157.405 211.614 157.401 211.413 157.377 211.214Z" fill="black"/>
<path d="M171.573 196.363C171.68 196.484 171.742 196.636 171.748 196.795C171.746 197.025 171.656 197.247 171.494 197.416C171.333 197.586 171.112 197.691 170.874 197.712C170.1 197.745 169.335 197.538 168.69 197.122C168.283 196.891 167.959 196.545 167.762 196.131C167.654 195.907 167.606 195.66 167.623 195.413C167.64 195.166 167.722 194.927 167.86 194.719C168.041 194.503 168.266 194.327 168.522 194.201C168.778 194.076 169.059 194.005 169.346 193.991C169.977 193.938 170.614 193.974 171.235 194.097C172.625 194.32 173.952 194.819 175.133 195.562C175.449 195.749 175.719 195.999 175.926 196.296C176.133 196.592 176.273 196.928 176.334 197.28C176.351 197.649 176.273 198.016 176.107 198.349C175.941 198.681 175.693 198.97 175.384 199.188C174.667 199.586 173.874 199.841 173.052 199.939C172.231 200.037 171.398 199.975 170.601 199.757C169.021 199.436 167.563 198.702 166.386 197.635C165.209 196.568 164.359 195.209 163.929 193.707C163.856 193.375 163.863 193.031 163.95 192.701C164.037 192.372 164.202 192.067 164.432 191.81C164.895 191.331 165.472 190.969 166.113 190.756C167.267 190.348 168.479 190.113 169.706 190.06C171.495 189.969 173.286 190.227 174.969 190.819C175.559 191.03 176.061 191.23 176.313 191.367C176.564 191.504 176.771 191.578 176.771 191.578C176.213 191.236 175.62 190.95 175.002 190.724C173.314 190.101 171.512 189.817 169.706 189.891C168.454 189.932 167.216 190.16 166.037 190.566C165.362 190.79 164.755 191.17 164.268 191.673C164.011 191.958 163.826 192.297 163.727 192.662C163.629 193.028 163.619 193.411 163.7 193.781C164.264 195.737 165.512 197.445 167.231 198.615C168.951 199.784 171.036 200.344 173.135 200.2C173.994 200.157 174.824 199.879 175.526 199.398C175.878 199.164 176.162 198.848 176.353 198.48C176.544 198.111 176.635 197.702 176.618 197.29C176.551 196.906 176.399 196.539 176.173 196.216C175.947 195.892 175.652 195.619 175.308 195.414C174.097 194.657 172.736 194.15 171.311 193.928C170.667 193.811 170.009 193.783 169.356 193.844C169.046 193.862 168.743 193.944 168.469 194.084C168.194 194.223 167.953 194.418 167.762 194.655C167.611 194.888 167.523 195.154 167.506 195.429C167.489 195.703 167.543 195.977 167.664 196.226C167.875 196.667 168.222 197.035 168.658 197.28C169.322 197.693 170.107 197.889 170.896 197.839C171.152 197.815 171.389 197.698 171.559 197.512C171.729 197.326 171.82 197.085 171.813 196.837C171.759 196.447 171.573 196.352 171.573 196.363Z" fill="white"/>
<path d="M153.25 195.815C153.25 195.815 153.752 195.741 154.647 195.815C155.923 195.896 157.17 196.218 158.316 196.763C160.004 197.598 161.586 198.617 163.034 199.799C164.796 201.296 166.803 202.5 168.974 203.362C171.213 204.105 173.629 204.193 175.919 203.614C177.784 203.139 179.498 202.227 180.91 200.958C181.866 200.083 182.66 199.056 183.258 197.923C183.485 197.525 183.675 197.109 183.826 196.679C183.763 196.777 183.708 196.879 183.662 196.985C183.563 197.196 183.4 197.501 183.181 197.881C182.542 198.946 181.735 199.91 180.79 200.737C179.389 201.968 177.698 202.85 175.865 203.309C173.614 203.855 171.247 203.76 169.051 203.035C166.908 202.185 164.924 201.003 163.176 199.536C161.714 198.348 160.108 197.336 158.393 196.521C157.226 195.974 155.954 195.669 154.658 195.625C154.182 195.63 153.709 195.694 153.25 195.815Z" fill="white"/>
<path d="M153.446 205.691C154.072 205.078 154.905 204.704 155.794 204.637C157.952 204.618 160.1 204.924 162.16 205.543C164.249 206.087 166.281 206.813 168.232 207.715C168.985 208.062 169.575 208.368 169.99 208.568C170.194 208.693 170.409 208.799 170.634 208.884C170.444 208.741 170.243 208.611 170.034 208.495C169.64 208.263 169.051 207.925 168.308 207.567C166.369 206.61 164.33 205.854 162.226 205.311C161.069 205.006 159.895 204.766 158.71 204.595C157.741 204.424 156.752 204.385 155.772 204.479C155.103 204.548 154.468 204.796 153.937 205.195C153.75 205.337 153.584 205.504 153.446 205.691Z" fill="white"/>
<path d="M167.62 212.679C167.288 212.346 166.923 212.045 166.528 211.783C165.555 211.093 164.437 210.618 163.252 210.392C162.659 210.275 162.047 210.287 161.459 210.428C160.872 210.568 160.324 210.833 159.856 211.203C159.578 211.431 159.345 211.706 159.168 212.015C159.102 212.126 159.058 212.247 159.037 212.373C159.289 211.979 159.602 211.623 159.965 211.319C160.428 210.983 160.959 210.746 161.524 210.624C162.089 210.502 162.675 210.499 163.241 210.613C164.379 210.844 165.459 211.288 166.419 211.92C166.804 212.195 167.205 212.449 167.62 212.679Z" fill="white"/>
<path d="M152.354 189.86C152.403 189.912 152.458 189.958 152.518 189.997C152.627 190.071 152.791 190.187 153.02 190.324C153.286 190.505 153.587 190.634 153.905 190.703C154.334 190.777 154.776 190.751 155.193 190.629C156.121 190.429 157.159 189.976 158.327 189.575C159.594 189.16 160.894 188.846 162.215 188.637C164.634 188.298 167.076 188.14 169.52 188.163H171.704C171.977 188.19 172.251 188.19 172.523 188.163L171.704 188.1L169.52 188.026C167.066 187.951 164.611 188.089 162.182 188.437C160.843 188.641 159.527 188.966 158.251 189.407C157.071 189.807 156.067 190.271 155.15 190.461C154.807 190.58 154.442 190.622 154.08 190.584C153.719 190.545 153.371 190.427 153.064 190.239C152.834 190.101 152.597 189.975 152.354 189.86Z" fill="white"/>
<path d="M360.057 277.442V363.776C360.078 363.941 360.161 364.094 360.289 364.204C360.418 364.315 360.584 364.376 360.755 364.376C360.927 364.376 361.093 364.315 361.221 364.204C361.35 364.094 361.433 363.941 361.454 363.776V277.442C361.433 277.277 361.35 277.124 361.221 277.014C361.093 276.903 360.927 276.842 360.755 276.842C360.584 276.842 360.418 276.903 360.289 277.014C360.161 277.124 360.078 277.277 360.057 277.442Z" fill="#F49466"/>
<path d="M365.754 344.751C365.754 345.714 365.461 346.655 364.911 347.456C364.361 348.257 363.58 348.881 362.665 349.25C361.751 349.618 360.744 349.715 359.774 349.527C358.803 349.339 357.911 348.875 357.211 348.194C356.511 347.513 356.035 346.645 355.842 345.701C355.649 344.756 355.748 343.777 356.126 342.887C356.505 341.998 357.147 341.237 357.97 340.702C358.793 340.167 359.76 339.881 360.75 339.881C362.077 339.881 363.35 340.394 364.289 341.308C365.227 342.221 365.754 343.459 365.754 344.751Z" fill="#F49466"/>
<path d="M359.363 347.27C359.363 347.27 355.713 350.822 354.619 361.225C353.525 371.628 353.287 376.824 353.287 376.824L363.122 377.414V369.973C363.122 370.321 365.072 375.528 365.072 375.528L372.849 373.04C372.849 373.04 370.087 345.383 359.363 347.27Z" fill="#F49466"/>
<path d="M308.203 284.504H141.172V343.096H308.203V284.504Z" fill="#263238"/>
<path d="M366.87 274.428H81.1733V284.515H366.87V274.428Z" fill="#263238"/>
<path opacity="0.3" d="M141.172 326.474C141.172 326.474 191.91 308.767 224.688 302.232C257.466 295.698 308.203 297.869 308.203 297.869V284.536H141.172V326.474Z" fill="black"/>
<path opacity="0.3" d="M184.512 274.428H81.1733V284.515H184.512V274.428Z" fill="black"/>
<path d="M364.801 284.536C364.801 284.694 301.271 284.82 222.901 284.82C144.53 284.82 81 284.694 81 284.536C81 284.378 144.509 284.262 222.901 284.262C301.293 284.262 364.801 284.357 364.801 284.536Z" fill="#455A64"/>
<path d="M184.349 284.589C183.959 281.184 183.959 277.748 184.349 274.344C184.725 277.749 184.725 281.183 184.349 284.589Z" fill="#455A64"/>
<path d="M208.169 343.107C208.017 343.107 207.887 331.671 207.887 317.568C207.887 303.466 208.017 292.04 208.169 292.04C208.321 292.04 208.461 303.466 208.461 317.568C208.461 331.671 208.331 343.107 208.169 343.107Z" fill="#455A64"/>
<path d="M440.224 408.645L418.472 400.163L401.86 358.265L379.715 369.281C379.715 369.281 381.85 373.415 386.426 383.662C388.205 387.607 394.057 398.635 396.437 404.001C398.64 408.962 402.268 413.211 406.893 416.244C411.517 419.277 416.944 420.969 422.533 421.118L442.948 421.627L440.224 408.645Z" fill="#FFBF9D"/>
<path d="M451.033 400.542L454.271 397.202C454.901 396.803 455.642 396.601 456.394 396.621L466.798 396.929C467.769 397.02 468.707 397.32 469.541 397.808C470.376 398.296 471.086 398.959 471.619 399.748L475.41 405.967C475.41 405.967 477.95 410.22 477.631 411.262C477.489 411.695 477.186 412.062 476.78 412.292C476.375 412.521 475.895 412.598 475.435 412.506C475.435 412.506 475.067 414.473 474.392 414.875C474.001 415.065 473.575 415.177 473.138 415.203C472.702 415.23 472.264 415.171 471.852 415.029C471.673 415.402 471.382 415.715 471.017 415.926C470.651 416.138 470.229 416.238 469.803 416.214C469.621 416.198 469.44 416.166 469.264 416.119C468.037 415.752 467.472 413.442 467.472 413.442L462.197 412.506C462.197 412.506 454.615 417.398 451.94 420.597C449.266 423.795 442.273 421.355 442.273 421.355L439.66 409.272L451.033 400.542Z" fill="#FFBF9D"/>
<path d="M458.7 401.975C459.44 402.197 460.208 402.32 460.982 402.343C462.418 402.497 464.442 402.556 466.736 402.84L466.491 402.662C466.885 403.48 467.336 404.272 467.84 405.032C469.226 407.154 470.911 409.079 472.846 410.753C473.606 411.491 474.49 412.099 475.459 412.554C475.459 412.471 474.539 411.76 473.165 410.421C471.361 408.69 469.76 406.771 468.393 404.7C467.89 403.906 467.436 403.124 467.055 402.331L466.982 402.177H466.81C464.467 401.928 462.442 401.952 461.007 401.904C460.238 401.851 459.465 401.875 458.7 401.975Z" fill="#FF9A6C"/>
<path d="M458.467 406.773C459.081 407.062 459.748 407.231 460.43 407.27C462.125 407.497 463.847 407.441 465.522 407.105L465.141 406.903C465.362 407.524 465.616 408.133 465.902 408.727C466.851 410.617 468.181 412.305 469.816 413.691C470.454 414.302 471.213 414.781 472.049 415.1C471.443 414.488 470.804 413.906 470.135 413.359C468.622 411.939 467.377 410.275 466.454 408.443C466.17 407.877 465.921 407.296 465.706 406.702L465.608 406.441H465.338C463.073 406.85 460.762 406.962 458.467 406.773Z" fill="#FF9A6C"/>
<path d="M445.242 409.249L454.529 405.079C455.775 404.409 457.156 404.005 458.578 403.894C460.098 404.023 461.566 404.498 462.859 405.28L467.865 407.768C468.135 407.91 468.429 408.076 468.515 408.348C468.601 408.621 468.368 409.095 468.086 409.367C466.794 410.547 465.103 411.236 463.326 411.306C461.548 411.375 459.805 410.821 458.418 409.746C457.74 411.881 456.682 413.886 455.29 415.669C454.578 416.563 453.64 417.265 452.565 417.707C451.491 418.149 450.316 418.316 449.155 418.192" fill="#FFBF9D"/>
<path d="M449.18 418.311C449.257 418.347 449.34 418.371 449.425 418.382C449.674 418.441 449.93 418.473 450.186 418.476C451.161 418.48 452.121 418.252 452.983 417.813C454.318 417.139 455.451 416.143 456.271 414.923C457.289 413.355 458.113 411.677 458.725 409.924L458.259 410.03C459.004 410.635 459.866 411.09 460.794 411.371C461.723 411.651 462.7 411.752 463.669 411.665C464.723 411.596 465.75 411.317 466.687 410.848C467.167 410.603 467.616 410.305 468.024 409.959C468.246 409.783 468.447 409.584 468.626 409.367C468.741 409.232 468.824 409.074 468.869 408.903C468.914 408.733 468.918 408.556 468.883 408.384C468.843 408.243 468.774 408.111 468.679 407.997C468.584 407.883 468.465 407.789 468.331 407.721C468.11 407.59 467.926 407.507 467.73 407.401L466.577 406.832L464.307 405.648C462.897 404.85 461.394 404.218 459.829 403.764C458.327 403.503 456.777 403.732 455.425 404.416C454.198 404.96 452.971 405.505 451.989 405.991L447.082 408.36C446.465 408.628 445.871 408.941 445.303 409.296C445.952 409.11 446.584 408.873 447.192 408.585L452.223 406.441L455.682 404.949C456.929 404.331 458.355 404.135 459.731 404.392C461.24 404.848 462.69 405.472 464.049 406.252L466.307 407.436L467.46 408.017C467.853 408.206 468.27 408.396 468.294 408.585C468.319 408.775 468.012 409.237 467.632 409.533C467.257 409.847 466.846 410.118 466.405 410.338C465.547 410.768 464.608 411.026 463.645 411.097C461.852 411.265 460.063 410.746 458.664 409.651L458.345 409.391L458.21 409.77C457.638 411.494 456.868 413.151 455.915 414.71C455.164 415.892 454.118 416.873 452.873 417.564C451.741 418.148 450.459 418.407 449.18 418.311Z" fill="#FF9A6C"/>
<path d="M324.47 291.881C324.384 285.153 323.243 278.448 323.562 271.744C323.881 265.039 325.66 258.014 330.518 253.193C335.377 248.372 343.854 246.548 349.498 250.398L350.725 256.131C348.492 282.073 348.786 308.43 346.553 334.372C346.259 337.783 343.4 340.875 341.793 343.92C340.186 346.964 336.959 349.487 333.426 349.274C328.801 349.001 325.77 344.476 324.335 340.212C319.06 324.801 324.679 308.145 324.47 291.881Z" fill="#263238"/>
<path d="M341.229 256.996C342.159 255.286 343.355 253.724 344.774 252.364C345.49 251.687 346.356 251.176 347.305 250.868C348.255 250.561 349.265 250.464 350.259 250.587C350.727 250.643 351.172 250.814 351.552 251.084C351.932 251.353 352.235 251.713 352.43 252.127C352.737 252.98 352.074 254.129 351.142 254.046L350.946 254.212C348.86 255.997 346.737 257.738 344.578 259.436C344.063 259.9 343.459 260.262 342.799 260.502C342.468 260.619 342.109 260.643 341.764 260.572C341.419 260.5 341.102 260.337 340.849 260.099C340.076 259.27 340.64 257.955 341.229 256.996Z" fill="#F49466"/>
<path d="M337.291 263.606C344.235 255.408 353.559 250.682 364.527 250.575C370.661 250.469 373.274 251.76 377.728 252.873C382.187 253.913 386.129 256.428 388.868 259.981C392.021 264.304 394.671 269.149 395.272 274.421C396.058 279.807 396.325 285.251 396.069 290.685C395.812 296.145 393.995 301.43 390.818 305.954L376.538 308.323C368.649 308.584 360.65 308.833 352.958 307.139C345.265 305.445 337.806 301.405 333.696 294.902C327.979 285.804 330.359 271.791 337.291 263.606Z" fill="#263238"/>
<path d="M349.989 263.511L369.029 256.202L374.01 256.759C385.199 256.759 392.929 268.723 393.002 277.465C393.076 287.202 392.781 299.072 391.186 306.238C387.96 320.655 375.237 321.851 375.237 321.851C375.237 321.851 375.495 329.539 375.593 334.372L346.431 332.346L344.971 268.45C345.015 267.17 345.555 265.952 346.484 265.038C347.413 264.123 348.664 263.578 349.989 263.511Z" fill="#FFBF9D"/>
<path d="M368.796 302.862C368.914 302.125 369.307 301.456 369.9 300.979C370.441 300.53 371.119 300.264 371.83 300.224C372.542 300.183 373.248 300.369 373.839 300.754C374.452 301.21 374.929 301.816 375.22 302.509C375.511 303.203 375.606 303.958 375.495 304.698C375.167 305.143 374.745 305.514 374.256 305.788C373.767 306.062 373.223 306.231 372.661 306.286C372.485 306.297 372.309 306.297 372.133 306.286C371.223 306.304 370.342 305.976 369.68 305.374C369.347 305.046 369.094 304.65 368.941 304.215C368.788 303.78 368.739 303.318 368.796 302.862Z" fill="#FF9A6C"/>
<path d="M387.96 289.773C387.941 290.26 387.724 290.72 387.357 291.055C386.99 291.389 386.502 291.571 385.997 291.561C385.75 291.566 385.504 291.523 385.275 291.436C385.045 291.348 384.836 291.217 384.659 291.051C384.482 290.885 384.341 290.686 384.244 290.466C384.147 290.247 384.097 290.011 384.095 289.773C384.121 289.286 384.341 288.827 384.709 288.494C385.077 288.16 385.565 287.977 386.07 287.984C386.317 287.979 386.562 288.022 386.791 288.11C387.02 288.198 387.228 288.329 387.404 288.495C387.58 288.662 387.72 288.861 387.815 289.08C387.911 289.299 387.96 289.535 387.96 289.773Z" fill="#263238"/>
<path d="M389.592 282.334C389.346 282.559 387.935 281.445 385.911 281.339C383.887 281.232 382.23 282.156 382.034 281.895C381.838 281.635 382.206 281.35 382.893 280.924C383.827 280.37 384.915 280.109 386.009 280.178C387.089 280.229 388.125 280.611 388.966 281.268C389.53 281.777 389.726 282.227 389.592 282.334Z" fill="#263238"/>
<path d="M376.243 298.077C377.356 297.794 378.503 297.655 379.654 297.662C380.182 297.662 380.697 297.567 380.807 297.212C380.874 296.688 380.78 296.157 380.537 295.684C380.108 294.416 379.654 293.09 379.188 291.692C377.323 286.029 375.998 281.374 376.243 281.303C376.489 281.232 378.182 285.769 380.047 291.443L381.273 295.447C381.575 296.082 381.632 296.801 381.433 297.472C381.348 297.649 381.222 297.804 381.064 297.925C380.907 298.046 380.722 298.131 380.525 298.171C380.227 298.233 379.922 298.257 379.617 298.242C378.49 298.316 377.357 298.26 376.243 298.077Z" fill="#263238"/>
<path d="M375.262 321.839C368.164 321.568 361.283 319.398 355.387 315.573C355.387 315.573 360.184 325.938 375.335 325.381L375.262 321.839Z" fill="#FF9A6C"/>
<path d="M370.048 299.131C370.379 299.131 370.269 301.31 372.109 302.957C373.949 304.604 376.366 304.497 376.366 304.805C376.366 305.113 375.802 305.196 374.796 305.172C373.469 305.121 372.204 304.618 371.225 303.751C370.289 302.922 369.722 301.776 369.643 300.552C369.618 299.64 369.888 299.119 370.048 299.131Z" fill="#263238"/>
<path d="M388.892 275.309C388.512 275.771 386.942 275.368 385.077 275.416C383.212 275.463 381.642 275.854 381.249 275.416C381.077 275.191 381.31 274.729 381.985 274.231C382.897 273.659 383.964 273.358 385.052 273.366C386.14 273.338 387.214 273.614 388.144 274.16C388.819 274.61 389.052 275.072 388.892 275.309Z" fill="#263238"/>
<path d="M365.275 289.275C365.265 289.762 365.451 290.233 365.795 290.589C366.139 290.945 366.612 291.158 367.116 291.182C367.361 291.205 367.609 291.18 367.844 291.109C368.079 291.039 368.298 290.923 368.486 290.77C368.675 290.616 368.83 290.428 368.942 290.216C369.054 290.005 369.121 289.773 369.14 289.536C369.15 289.05 368.966 288.579 368.625 288.222C368.285 287.864 367.814 287.647 367.312 287.617C367.065 287.594 366.816 287.619 366.579 287.691C366.342 287.762 366.122 287.878 365.933 288.033C365.743 288.187 365.587 288.377 365.474 288.59C365.361 288.803 365.294 289.036 365.275 289.275Z" fill="#263238"/>
<path d="M361.472 281.552C361.705 281.801 363.19 280.782 365.275 280.817C367.361 280.853 368.858 281.895 369.091 281.647C369.324 281.398 368.968 281.102 368.306 280.616C367.419 279.999 366.356 279.664 365.263 279.657C364.181 279.633 363.119 279.945 362.233 280.545C361.582 281.007 361.349 281.445 361.472 281.552Z" fill="#263238"/>
<path d="M362.723 275.131C363.116 275.593 364.735 275.131 366.662 275.131C368.588 275.131 370.232 275.499 370.612 275.025C370.784 274.8 370.526 274.338 369.827 273.84C368.857 273.292 367.748 273.017 366.625 273.047C365.509 273.034 364.414 273.335 363.472 273.911C362.772 274.433 362.539 274.906 362.723 275.131Z" fill="#263238"/>
<path d="M347.535 292.876C347.535 291.798 346.443 289.18 345.339 288.955C342.407 288.351 337.07 288.292 336.604 295.542C335.966 305.456 346.418 304.023 346.418 303.739C346.418 303.455 347.351 296.62 347.535 292.876Z" fill="#FFBF9D"/>
<path d="M343.854 299.948C343.854 299.948 343.67 300.067 343.364 300.173C342.931 300.343 342.447 300.343 342.014 300.173C340.959 299.723 340.149 298.006 340.211 296.217C340.241 295.366 340.467 294.532 340.873 293.777C340.988 293.471 341.179 293.198 341.43 292.981C341.68 292.765 341.982 292.61 342.308 292.533C342.516 292.493 342.731 292.525 342.917 292.622C343.103 292.719 343.248 292.876 343.327 293.066C343.449 293.35 343.327 293.552 343.425 293.563C343.523 293.575 343.658 293.409 343.597 292.995C343.556 292.746 343.426 292.52 343.229 292.355C343.097 292.243 342.944 292.157 342.777 292.104C342.61 292.052 342.434 292.032 342.259 292.047C341.832 292.097 341.425 292.254 341.081 292.504C340.736 292.753 340.466 293.086 340.296 293.469C339.806 294.301 339.533 295.236 339.499 296.193C339.438 298.195 340.382 300.126 341.83 300.623C342.101 300.718 342.39 300.753 342.676 300.727C342.963 300.7 343.239 300.612 343.486 300.469C343.854 300.197 343.854 299.972 343.854 299.948Z" fill="#FF9A6C"/>
<path d="M344.946 288.979L347.535 291.561C358.797 281.149 380.807 255.088 379.568 256.64C374.435 254.798 368.904 254.232 363.484 254.994C355.105 256.368 339.229 260.419 339.474 269.955C339.72 279.491 344.946 288.979 344.946 288.979Z" fill="#263238"/>
<path d="M330.028 286.823C330.061 286.629 330.114 286.438 330.187 286.255C330.374 285.715 330.608 285.192 330.886 284.691C331.95 282.856 333.415 281.267 335.18 280.036C337.783 278.231 340.688 276.872 343.768 276.02C347.204 274.942 351.068 274.101 354.871 272.466C358.458 271.023 361.859 269.183 365.005 266.982C367.579 265.182 369.977 263.16 372.17 260.94C373.641 259.439 375.022 257.857 376.305 256.202L377.335 254.828C377.45 254.662 377.582 254.507 377.728 254.366C377.642 254.548 377.539 254.723 377.421 254.887C377.213 255.219 376.906 255.704 376.476 256.309C375.248 258.023 373.9 259.653 372.44 261.189C367.597 266.273 361.67 270.282 355.068 272.94C351.413 274.277 347.691 275.436 343.916 276.411C340.849 277.218 337.945 278.519 335.328 280.261C333.581 281.446 332.107 282.966 330.997 284.726C330.359 286.018 330.089 286.823 330.028 286.823Z" fill="#455A64"/>
<path d="M333.021 288.351C332.988 287.61 333.122 286.87 333.414 286.183C334.189 284.289 335.535 282.663 337.278 281.516C339.888 279.893 342.808 278.794 345.866 278.282C349.526 277.574 353.093 276.478 356.503 275.013C359.899 273.517 363.089 271.619 365.999 269.363C368.367 267.512 370.544 265.445 372.501 263.191C373.835 261.662 375.064 260.052 376.182 258.37L377.053 256.984C377.143 256.817 377.254 256.662 377.384 256.522C377.316 256.697 377.234 256.868 377.139 257.031L376.354 258.476C375.31 260.203 374.137 261.854 372.845 263.416C370.911 265.73 368.736 267.845 366.355 269.73C363.427 272.031 360.207 273.962 356.773 275.475C353.333 276.957 349.726 278.05 346.026 278.733C343.023 279.216 340.147 280.262 337.561 281.812C335.85 282.899 334.503 284.443 333.684 286.255C333.397 286.932 333.175 287.634 333.021 288.351Z" fill="#455A64"/>
<path d="M345.29 305.776C345.29 305.705 344.419 305.599 342.897 305.208C340.764 304.613 338.8 303.556 337.156 302.116C334.746 299.938 332.915 297.232 331.819 294.227C330.418 290.564 329.663 286.7 329.586 282.796C329.54 280.778 329.708 278.762 330.089 276.778C331.118 271.788 333.546 267.166 337.107 263.416C339.2 261.269 341.51 259.329 344.002 257.623C344.002 257.623 343.793 257.695 343.425 257.908C343.057 258.121 342.529 258.405 341.879 258.855C340.015 260.09 338.296 261.516 336.751 263.108C334.437 265.468 332.565 268.197 331.218 271.175C330.437 272.941 329.841 274.779 329.439 276.66C329.044 278.686 328.867 280.746 328.911 282.807C328.985 286.785 329.769 290.72 331.23 294.44C332.391 297.516 334.316 300.269 336.837 302.46C338.557 303.904 340.61 304.932 342.824 305.456C343.426 305.589 344.037 305.683 344.652 305.741C344.863 305.769 345.076 305.781 345.29 305.776Z" fill="#455A64"/>
<path d="M332.224 427.681L392.929 436.198C415.736 442.429 439.758 444.253 464.871 442.121L373.507 483.273L336.824 483.817C336.824 483.817 325.66 483.817 323.709 474.412C321.759 465.006 319.587 436.364 319.587 436.364C319.587 436.364 326.838 430.299 332.224 427.681Z" fill="#263238"/>
<g opacity="0.3">
<path d="M332.408 452.355C331.404 458.225 331.042 464.181 331.328 470.124C329.463 468.147 328.09 465.787 327.312 463.221C326.534 460.655 326.372 457.952 326.838 455.317C327.365 452.426 328.617 449.24 327.046 446.717C325.991 445.023 323.206 443.08 323.611 441.149C323.611 441.149 326.065 441.149 328.261 441.066C330.04 440.995 333.733 440.889 333.733 440.889C332.144 444.573 331.8 448.649 332.751 452.533" fill="black"/>
</g>
<path d="M375.495 331.955L346.001 328.875L340.603 333.614L361.656 345.578L370.943 350.221L380.12 347.532L383.028 342.249L375.495 331.955Z" fill="#FFBF9D"/>
<path d="M415.257 366.628C415.257 366.628 406.007 349.499 403.725 345.756C399.824 339.371 392.536 335.758 392.536 335.758L375.495 331.955C375.495 331.955 377.262 340.247 366.662 340.769C353.166 341.491 344.787 329.006 344.787 329.006C344.787 329.006 329.402 330.534 325.157 332.252C320.912 333.969 308.889 338.838 307.122 354.261L303 379.457L335.512 381.826L335.07 415.373L348.884 426.283C348.884 426.283 388.549 439.467 391.088 440.332C392.315 440.746 391.996 424.47 394.83 410.516L400.179 397.972C402.345 392.961 403.626 387.636 403.97 382.217C404.179 378.663 404.081 375.939 404.081 375.939C404.081 375.939 412.423 373.178 415.257 366.628Z" fill="#455A64"/>
<path d="M389.641 427.183L335.131 411.393L335.512 381.85L307.76 379.812C307.76 379.812 309.969 395.117 310.3 402.959C310.766 414.248 316.434 430.026 320.115 433.367C323.795 436.707 391.052 440.356 391.052 440.356L389.641 427.183Z" fill="#FFBF9D"/>
<path d="M420.557 436.47C420.295 436.905 419.877 437.232 419.383 437.391C418.888 437.55 418.351 437.53 417.871 437.335C416.644 436.861 416.975 434.468 416.975 434.468L411.172 433.094C411.172 433.094 403.161 437.287 400.13 440.202C397.1 443.116 390.438 440.071 390.438 440.071L389.052 427.787L400.621 419.152C400.621 419.152 399.909 419.673 400.805 417.967C401.701 416.261 405.038 417.185 405.038 417.185C405.627 416.344 407.872 416.202 407.872 416.202L417.282 417.967C418.237 418.146 419.138 418.53 419.919 419.09C420.7 419.649 421.342 420.371 421.797 421.201L425.318 427.633C425.318 427.633 427.084 432.206 426.655 433.213C426.47 433.629 426.133 433.966 425.707 434.158C425.282 434.35 424.798 434.385 424.348 434.255C424.348 434.255 423.649 437.122 422.852 437.157C422.046 437.061 421.267 436.816 420.557 436.435V436.47Z" fill="#FFBF9D"/>
<path d="M401.063 426.283C401.063 426.378 402.29 426.354 404.351 426.591C406.975 426.914 409.542 427.579 411.982 428.569C413.321 429.122 414.613 429.775 415.846 430.524C416.938 431.222 418.091 431.827 418.398 432.668C418.464 432.848 418.481 433.043 418.447 433.232C418.412 433.42 418.328 433.597 418.202 433.746C418.008 433.991 417.743 434.177 417.441 434.279C416.926 434.433 416.619 434.279 416.595 434.279C416.57 434.279 416.877 434.551 417.503 434.445C417.873 434.365 418.208 434.174 418.459 433.9C418.64 433.712 418.767 433.482 418.827 433.233C418.887 432.984 418.879 432.723 418.803 432.478C418.594 431.926 418.218 431.447 417.723 431.104C417.233 430.737 416.717 430.37 416.141 430.002C412.626 427.78 408.588 426.448 404.4 426.129C403.286 426.006 402.159 426.058 401.063 426.283Z" fill="#FF9A6C"/>
<path d="M399.922 432.075C399.922 432.241 403.799 432.383 408.51 432.999C413.221 433.615 417 434.468 417.098 434.302C416.319 433.941 415.494 433.682 414.644 433.532C412.656 433.05 410.64 432.678 408.608 432.419C406.574 432.152 404.526 431.998 402.474 431.957C401.621 431.884 400.763 431.924 399.922 432.075Z" fill="#FF9A6C"/>
<path d="M420.521 436.233C420.62 435.921 420.686 435.599 420.717 435.274C420.843 434.382 420.917 433.484 420.938 432.585C420.948 431.959 420.907 431.333 420.815 430.713C420.701 429.983 420.439 429.283 420.042 428.652C419.226 427.192 418.117 425.903 416.779 424.861C415.455 423.817 413.985 422.959 412.411 422.315C411.107 421.847 409.746 421.541 408.362 421.402C407.136 421.272 406.252 421.237 405.59 421.201C405.252 421.153 404.909 421.153 404.571 421.201C405.785 421.469 407.014 421.667 408.252 421.793C409.587 421.982 410.896 422.316 412.153 422.788C413.663 423.439 415.074 424.284 416.349 425.3C417.621 426.287 418.694 427.492 419.515 428.853C420.169 429.976 420.496 431.249 420.459 432.537C420.557 434.824 420.386 436.233 420.521 436.233Z" fill="#FF9A6C"/>
<path d="M408.142 418.595C408.142 418.69 409.552 418.832 411.822 419.246C414.092 419.661 417.466 420.147 419.183 423.203C420.936 425.521 422.352 428.06 423.391 430.749C423.715 431.891 423.925 433.062 424.017 434.243C424.132 433.932 424.178 433.601 424.152 433.272C424.174 432.38 424.059 431.489 423.809 430.63C422.875 427.847 421.483 425.227 419.686 422.871C419.209 422.158 418.635 421.508 417.981 420.94C417.35 420.418 416.621 420.015 415.834 419.756C414.544 419.324 413.212 419.018 411.859 418.844C410.635 418.611 409.387 418.528 408.142 418.595Z" fill="#FF9A6C"/>
<path d="M402.412 438.448C402.625 438.341 402.826 438.214 403.013 438.069L404.694 436.968C406.812 435.62 409.008 434.391 411.27 433.284H411.135L416.926 434.693L416.742 434.433C416.687 434.897 416.687 435.366 416.742 435.83C416.778 436.343 416.97 436.833 417.294 437.24C417.495 437.445 417.756 437.585 418.042 437.643C418.306 437.732 418.586 437.768 418.864 437.749C419.44 437.71 419.984 437.475 420.398 437.086C420.498 436.985 420.593 436.878 420.68 436.766V436.683L420.337 436.778L420.521 436.861C420.759 436.982 421.005 437.089 421.257 437.181C421.513 437.278 421.776 437.361 422.042 437.43C422.182 437.47 422.326 437.497 422.471 437.513C422.657 437.542 422.848 437.521 423.023 437.453C423.304 437.282 423.525 437.035 423.661 436.743C423.797 436.498 423.916 436.245 424.017 435.984C424.223 435.472 424.391 434.945 424.52 434.409L424.164 434.61C424.555 434.726 424.972 434.735 425.368 434.637C425.764 434.539 426.125 434.337 426.41 434.054C426.706 433.751 426.88 433.356 426.9 432.94C426.901 432.566 426.864 432.193 426.79 431.827C426.462 430.4 426.027 428.999 425.489 427.633L423.612 424.198L422.385 422.03C422.022 421.281 421.578 420.57 421.06 419.91C420.498 419.275 419.81 418.755 419.036 418.382C418.282 418.047 417.479 417.823 416.656 417.718L407.798 416.072H407.724C407.18 416.112 406.641 416.207 406.117 416.356C405.561 416.475 405.059 416.761 404.682 417.173L405.025 417.102C404.558 416.853 404.035 416.716 403.501 416.703C402.967 416.691 402.438 416.803 401.958 417.031C401.13 417.537 400.526 418.322 400.265 419.235L400.351 419.128L392.377 425.051L390.23 426.686C389.971 426.867 389.729 427.069 389.506 427.29C389.788 427.149 390.055 426.983 390.303 426.792L392.524 425.24L400.621 419.483H400.682V419.4C400.911 418.607 401.441 417.926 402.167 417.493C402.571 417.306 403.017 417.215 403.466 417.23C403.914 417.244 404.352 417.363 404.743 417.576L404.952 417.671L405.087 417.505C405.399 417.193 405.8 416.978 406.24 416.889C406.729 416.758 407.231 416.675 407.737 416.64H407.663L416.521 418.322C417.294 418.419 418.048 418.631 418.754 418.95C419.45 419.283 420.068 419.751 420.57 420.324C421.053 420.955 421.464 421.634 421.797 422.35L423.023 424.518C423.674 425.702 424.25 426.887 424.9 427.953C425.407 429.29 425.816 430.66 426.127 432.052C426.198 432.375 426.235 432.704 426.238 433.035C426.221 433.319 426.099 433.588 425.894 433.793C425.683 433.997 425.419 434.142 425.13 434.213C424.84 434.284 424.536 434.278 424.25 434.196L423.956 434.125V434.397C423.821 434.906 423.661 435.428 423.477 435.913C423.343 436.358 423.099 436.764 422.766 437.098C422.686 437.121 422.6 437.121 422.52 437.098L422.165 437.027C421.917 436.973 421.674 436.898 421.441 436.802C421.208 436.719 420.975 436.612 420.741 436.506L420.57 436.435L420.214 436.529V436.589C420.147 436.681 420.073 436.768 419.993 436.849C419.764 437.085 419.471 437.252 419.147 437.332C418.823 437.411 418.482 437.4 418.165 437.299C417.969 437.267 417.789 437.176 417.65 437.039C417.217 436.324 417.057 435.486 417.196 434.67V434.456H417L411.184 433.13H411.111C408.85 434.266 406.673 435.553 404.596 436.98C403.872 437.489 403.369 437.892 402.964 438.164C402.773 438.246 402.589 438.341 402.412 438.448Z" fill="#FF9A6C"/>
<path d="M430.753 446.053C430.753 446.053 469.215 434.385 481.287 430.654C502.143 424.139 515.712 430.725 520.006 437.903C525.576 447.226 512.216 465.409 507.063 469.591C491.813 481.97 465.669 483.64 465.669 483.64L371.667 483.474L399.063 447.487L430.753 446.053Z" fill="#263238"/>
<path d="M424.986 462.898C440.651 464.658 456.522 462.572 471.128 456.833C473.62 455.745 476.186 454.823 478.809 454.073C481.401 453.442 484.088 453.257 486.746 453.528C487.801 453.554 488.84 453.784 489.801 454.206C490.762 454.627 491.626 455.23 492.341 455.98C494.218 458.349 493.261 461.761 492.218 464.58C490.991 467.897 489.764 471.285 487.311 473.938C484.526 477.03 480.477 478.807 476.416 480.039C468.478 482.408 460.099 483.154 451.781 483.462L423.22 481.958L424.986 462.898Z" fill="#E0E0E0"/>
<path d="M480.146 454.085C479.958 454.307 479.813 454.56 479.716 454.831C479.385 455.538 479.13 456.276 478.956 457.034C478.339 459.555 478.447 462.19 479.269 464.656C480.091 467.122 481.594 469.324 483.618 471.024C484.22 471.534 484.869 471.99 485.556 472.386C486.059 472.659 486.341 472.777 486.366 472.742C486.391 472.706 485.335 472.055 483.912 470.716C482.045 468.992 480.653 466.846 479.863 464.471C479.072 462.096 478.908 459.569 479.385 457.117C479.729 455.222 480.244 454.12 480.146 454.085Z" fill="#263238"/>
<path d="M332.58 443.779C334.812 437.667 335.18 428.687 348.958 424.376C362.736 420.064 373.139 428.332 380.218 431.199C387.297 434.065 425.98 454.559 425.98 454.559C425.98 454.559 433.268 467.103 431.194 472.647C429.121 478.191 419.699 483.663 419.699 483.663H376.427C365.263 483.663 344.529 483.296 344.529 483.296C341.753 478.903 339.266 474.345 337.082 469.65L336.714 467.849C336.677 466.416 330.359 449.891 332.58 443.779Z" fill="#263238"/>
<path d="M356.552 475.514C356.608 475.726 356.718 475.921 356.871 476.082C357.291 476.552 357.769 476.97 358.294 477.326C360.227 478.612 362.28 479.719 364.429 480.631C365.896 481.292 367.404 481.865 368.944 482.349C370.726 482.89 372.552 483.286 374.403 483.533C378.626 483.939 382.871 484.097 387.113 484.007C396.106 484.149 404.289 484.481 410.178 484.41C413.135 484.41 415.527 484.279 417.171 484.114C417.806 484.06 418.436 483.973 419.061 483.853C419.282 483.827 419.5 483.78 419.711 483.711C419.711 483.652 418.803 483.806 417.159 483.889C415.515 483.971 413.123 484.031 410.178 484.007C404.277 484.007 396.131 483.569 387.113 483.427C382.892 483.515 378.669 483.372 374.464 483C372.646 482.785 370.849 482.428 369.091 481.934C367.561 481.478 366.061 480.932 364.6 480.299C362.467 479.433 360.415 478.39 358.466 477.184C357.936 476.842 357.447 476.444 357.006 475.999C356.663 475.715 356.589 475.502 356.552 475.514Z" fill="#263238"/>
<path d="M419.699 483.664L420.275 483.367C420.643 483.166 421.183 482.834 421.882 482.396C423.917 481.114 425.823 479.65 427.575 478.025C428.844 476.85 429.927 475.501 430.789 474.021C431.67 472.168 431.895 470.087 431.427 468.098C430.375 463.336 428.611 458.747 426.189 454.476V454.416C419.097 450.649 410.963 446.373 402.081 441.765C397.64 439.467 393.014 437.086 388.205 434.658C385.751 433.473 383.298 432.289 380.844 431.104C378.39 429.919 375.875 428.735 373.336 427.456C369.827 425.599 366.064 424.232 362.159 423.392C360.241 423.023 358.287 422.852 356.331 422.883C354.418 422.939 352.517 423.201 350.663 423.665C347.07 424.519 343.697 426.075 340.75 428.237C339.38 429.333 338.168 430.6 337.143 432.004C336.202 433.389 335.424 434.871 334.825 436.423C334.211 437.939 333.782 439.467 333.34 440.96C332.834 442.41 332.424 443.89 332.113 445.39C331.92 448.256 332.169 451.135 332.849 453.931C333.402 456.596 334.076 459.084 334.776 461.394C335.119 462.578 335.463 463.68 335.782 464.758C336.101 465.836 336.469 466.902 336.64 467.849C336.788 468.525 336.898 469.034 337.021 469.638C338.202 473.299 339.873 476.795 341.99 480.039C342.739 481.199 343.624 482.272 344.627 483.237L344.468 483.024C344.333 482.87 344.161 482.68 343.952 482.42C343.302 481.63 342.696 480.808 342.137 479.956C340.093 476.692 338.481 473.194 337.34 469.543C336.64 468.975 336.775 468.418 336.984 467.743C336.77 466.662 336.491 465.594 336.15 464.545L335.156 461.192C334.493 458.823 333.831 456.383 333.291 453.741C332.638 450.989 332.406 448.16 332.604 445.343C332.927 443.872 333.336 442.421 333.831 440.995C334.285 439.503 334.727 437.986 335.328 436.506C335.913 434.99 336.675 433.544 337.597 432.194C338.593 430.835 339.773 429.612 341.106 428.557C345.518 425.364 350.834 423.546 356.344 423.345C358.255 423.315 360.164 423.485 362.036 423.854C365.895 424.681 369.613 426.033 373.078 427.87C375.532 429.055 377.985 430.476 380.623 431.53C383.261 432.585 385.531 433.84 387.984 435.084C392.781 437.453 397.419 439.822 401.86 442.192L426.005 454.76L425.919 454.665C428.334 458.888 430.106 463.424 431.182 468.134C431.666 470.055 431.472 472.077 430.63 473.879C429.804 475.346 428.753 476.683 427.514 477.847C425.793 479.485 423.925 480.972 421.931 482.289L420.361 483.308C419.919 483.533 419.699 483.664 419.699 483.664Z" fill="#263238"/>
<path d="M349.277 468.157C349.277 468.157 336.383 469.65 337.524 475.739C338.665 481.827 342.885 483.877 342.885 483.877L377.924 483.948C377.924 483.948 357.006 482.55 349.277 468.157Z" fill="#E0E0E0"/>
<path d="M348.026 465.208C348.029 465.801 348.162 466.386 348.418 466.925C348.893 468.287 349.598 469.564 350.504 470.704C351.726 472.366 353.435 473.637 355.411 474.353C353.784 473.174 352.291 471.832 350.958 470.349C349.833 468.718 348.852 466.998 348.026 465.208Z" fill="#263238"/>
<path d="M352.442 467.589C352.422 469.117 352.847 470.619 353.669 471.924C354.299 473.308 355.262 474.527 356.479 475.478C356.614 475.371 355.35 473.796 354.209 471.628C353.068 469.46 352.663 467.565 352.442 467.589Z" fill="#263238"/>
<path d="M336.052 482.183C336.15 482.183 335.315 480.595 334.309 477.978C331.668 471.141 330.796 463.785 331.77 456.549C332.15 453.789 332.592 452.095 332.494 452.071C332.299 452.446 332.159 452.844 332.076 453.255C331.773 454.328 331.532 455.415 331.353 456.513C330.125 463.813 331.008 471.298 333.905 478.143C334.342 479.153 334.837 480.137 335.389 481.093C335.564 481.48 335.787 481.846 336.052 482.183Z" fill="#455A64"/>
<g opacity="0.3">
<path d="M343.339 464.876C343.437 464.059 343.768 463.087 344.566 462.922C345.596 462.72 346.296 463.857 346.701 464.781C351.215 474.696 365.803 482.432 376.979 483.462C371.559 483.451 366.148 483.023 360.797 482.183C356.234 481.523 351.957 479.634 348.455 476.734C346.714 475.271 345.346 473.44 344.459 471.383C343.571 469.327 343.188 467.1 343.339 464.876Z" fill="black"/>
</g>
<path d="M428.704 451.384C430.84 450.805 432.918 450.039 434.912 449.098C436.984 448.34 438.98 447.4 440.874 446.29C438.74 446.873 436.663 447.634 434.666 448.565C432.594 449.326 430.598 450.27 428.704 451.384Z" fill="#263238"/>
<g opacity="0.2">
<path d="M416.239 446.148C432.924 443.068 449.671 440.332 466.479 437.939L478.993 441.753C475.484 448.055 468.552 452.071 461.35 453.729C454.149 455.388 446.628 454.997 439.267 454.345C431.145 453.623 422.803 452.521 415.736 448.588C415.196 448.292 414.583 447.842 414.656 447.238C414.73 446.634 415.515 446.278 416.239 446.148Z" fill="black"/>
</g>
<path d="M498.365 398.173L477.336 443.068C476.911 443.983 476.222 444.761 475.352 445.309C474.482 445.857 473.468 446.153 472.429 446.16L411.086 446.93L403.357 442.914L415.466 442.061L434.31 398.398C434.604 397.719 435.097 397.138 435.73 396.727C436.363 396.316 437.106 396.094 437.868 396.088L496.623 395.662C496.936 395.651 497.247 395.717 497.526 395.855C497.806 395.993 498.044 396.197 498.218 396.448C498.393 396.7 498.498 396.991 498.524 397.292C498.549 397.594 498.494 397.897 498.365 398.173Z" fill="#E0E0E0"/>
<path d="M498.365 398.173C498.465 398.006 498.528 397.82 498.549 397.628C498.587 397.344 498.555 397.055 498.455 396.785C498.355 396.515 498.189 396.272 497.972 396.076C497.637 395.776 497.202 395.6 496.745 395.579H491.359L466.761 395.662L449.658 395.745L440.101 395.804H437.648C436.739 395.867 435.877 396.217 435.194 396.799C434.536 397.395 434.049 398.146 433.783 398.978L432.777 401.348C427.416 413.75 421.49 427.467 415.208 441.967L415.503 441.765L403.811 442.594H403.394L402.167 442.677L403.21 443.222L410.939 447.238H411.025H411.111L457.608 446.622L467.988 446.48C469.681 446.48 471.3 446.48 472.981 446.385C473.82 446.289 474.628 446.017 475.347 445.587C476.065 445.157 476.677 444.581 477.14 443.897C479.876 438.342 482.158 433.236 484.378 428.498L494.66 406.299C495.886 403.705 496.77 401.679 497.408 400.27C497.714 399.606 497.935 399.085 498.107 398.706C498.279 398.327 498.328 398.161 498.328 398.161C498.223 398.329 498.129 398.503 498.046 398.682L497.285 400.222C496.623 401.608 495.666 403.622 494.426 406.145L483.949 428.273C481.728 432.928 479.348 438.164 476.674 443.566C476.258 444.182 475.705 444.701 475.056 445.086C474.407 445.471 473.677 445.713 472.92 445.793C471.349 445.864 469.644 445.852 468.012 445.876L457.633 445.994L411.135 446.539H411.307L403.578 442.511L403.43 443.139H403.848L415.54 442.322H415.748L415.834 442.144C422.079 427.621 427.992 413.904 433.341 401.49L434.335 399.18C434.554 398.427 434.977 397.743 435.562 397.202C436.145 396.693 436.888 396.389 437.672 396.337H440.126L449.683 396.254L466.773 396.088L491.396 395.804H495.248H496.77C497.013 395.812 497.251 395.869 497.471 395.97C497.691 396.07 497.887 396.213 498.048 396.389C498.208 396.565 498.33 396.771 498.406 396.995C498.481 397.218 498.509 397.453 498.487 397.687C498.456 397.851 498.415 398.013 498.365 398.173Z" fill="#263238"/>
<path d="M417.318 446.847C417.433 446.693 417.528 446.526 417.601 446.349L418.3 444.904C418.913 443.554 419.748 441.73 420.754 439.526C422.803 434.966 425.587 428.664 428.581 421.651C431.575 414.638 434.225 408.277 436.053 403.646C436.973 401.276 437.697 399.44 438.163 398.126C438.384 397.521 438.555 397.024 438.703 396.609C438.771 396.433 438.821 396.25 438.85 396.064C438.738 396.218 438.647 396.385 438.58 396.562L437.942 398.043C437.365 399.417 436.592 401.253 435.66 403.492C433.672 408.159 430.986 414.461 428.029 421.438C425.072 428.415 422.349 434.693 420.361 439.36L418.067 444.81C417.834 445.414 417.637 445.899 417.478 446.302C417.393 446.474 417.339 446.658 417.318 446.847Z" fill="#263238"/>
<path d="M455.351 419.933C455.349 420.511 455.524 421.076 455.855 421.557C456.185 422.038 456.656 422.413 457.208 422.635C457.76 422.857 458.368 422.916 458.955 422.804C459.541 422.692 460.08 422.414 460.503 422.006C460.926 421.598 461.214 421.077 461.33 420.511C461.446 419.945 461.385 419.358 461.155 418.825C460.925 418.292 460.536 417.837 460.038 417.517C459.54 417.198 458.955 417.029 458.357 417.031C457.56 417.031 456.795 417.337 456.231 417.881C455.668 418.426 455.351 419.164 455.351 419.933Z" fill="white"/>
<path d="M395.664 347.71C395.566 347.71 396.45 349.357 397.689 352.01C400.932 358.937 403.051 366.304 403.97 373.854C404.338 376.756 404.437 378.592 404.547 378.592C404.613 378.168 404.613 377.737 404.547 377.313C404.547 376.495 404.547 375.311 404.375 373.842C403.682 366.197 401.527 358.743 398.02 351.856C397.345 350.541 396.793 349.487 396.315 348.8C396.144 348.413 395.926 348.047 395.664 347.71Z" fill="#263238"/>
<path d="M303 379.457C303.219 379.521 303.446 379.557 303.675 379.563L305.625 379.741L312.913 380.333L337.83 382.146H338.149V381.838C338.358 378.639 338.579 375.263 338.8 371.804C339.155 365.763 339.462 359.959 339.56 354.758C339.878 350.074 338.773 345.401 336.383 341.313C334.742 338.556 332.32 336.309 329.402 334.834C328.614 334.453 327.793 334.139 326.948 333.898C326.655 333.809 326.355 333.738 326.053 333.685C326.053 333.78 327.279 334.028 329.304 335.047C332.117 336.573 334.44 338.819 336.015 341.539C338.288 345.586 339.306 350.179 338.947 354.77C338.824 359.994 338.505 365.751 338.149 371.793C337.929 375.251 337.72 378.627 337.511 381.814L337.855 381.53L312.913 379.942L305.552 379.528L303.601 379.457H303Z" fill="#263238"/>
<path d="M364.134 399.973C364.512 399.902 364.877 399.775 365.214 399.594C365.636 399.423 366.046 399.226 366.441 399.002C366.97 398.727 367.482 398.423 367.974 398.09C369.28 397.24 370.485 396.255 371.569 395.152C372.881 393.786 374.033 392.284 375.004 390.675C375.941 389.047 376.686 387.322 377.225 385.534C377.652 384.072 377.915 382.571 378.01 381.056C378.046 380.476 378.046 379.894 378.01 379.315C378.008 378.875 377.975 378.435 377.912 378C377.901 377.623 377.826 377.251 377.691 376.898C377.568 376.898 377.777 378.497 377.519 381.02C377.365 382.494 377.065 383.949 376.624 385.368C376.06 387.102 375.316 388.777 374.403 390.367C373.464 391.934 372.358 393.403 371.103 394.749C370.059 395.84 368.913 396.836 367.68 397.723C365.594 399.227 364.073 399.867 364.134 399.973Z" fill="#263238"/>
</svg>
